HIERARCHY
ROOT Hips
{
 OFFSET 0.000000 0.000000 0.000000
 CHANNELS 6 Xposition Yposition Zposition Yrotation Xrotation Zrotation
 JOINT Chest
 {
  OFFSET 0.000000 9.585900 0.002600
  CHANNELS 3 Yrotation Xrotation Zrotation
  JOINT Chest2
  {
   OFFSET 0.000000 9.601200 -0.005300
   CHANNELS 3 Yrotation Xrotation Zrotation
   JOINT Chest3
   {
    OFFSET 0.000000 9.561800 0.000000
    CHANNELS 3 Yrotation Xrotation Zrotation
    JOINT Chest4
    {
     OFFSET 0.000000 9.552100 0.000000
     CHANNELS 3 Yrotation Xrotation Zrotation
     JOINT Neck
     {
      OFFSET 0.000000 14.453000 0.000000
      CHANNELS 3 Yrotation Xrotation Zrotation
      JOINT Head
      {
       OFFSET 0.000000 8.936500 -0.011300
       CHANNELS 3 Yrotation Xrotation Zrotation
       End Site
       {
        OFFSET 0.000000 17.073600 -0.006000
       }
      }
     }
     JOINT RightCollar
     {
      OFFSET -2.921100 9.558500 0.000000
      CHANNELS 3 Yrotation Xrotation Zrotation
      JOINT RightShoulder
      {
       OFFSET -13.519700 0.000000 0.000000
       CHANNELS 3 Yrotation Xrotation Zrotation
       JOINT RightElbow
       {
        OFFSET 0.000000 -29.696600 0.000000
        CHANNELS 3 Yrotation Xrotation Zrotation
        JOINT RightWrist
        {
         OFFSET 0.000000 -24.004700 0.000000
         CHANNELS 3 Yrotation Xrotation Zrotation
         End Site
         {
          OFFSET 0.000000 -17.728500 0.000000
         }
        }
       }
      }
     }
     JOINT LeftCollar
     {
      OFFSET 2.921100 9.558500 0.000000
      CHANNELS 3 Yrotation Xrotation Zrotation
      JOINT LeftShoulder
      {
       OFFSET 13.519700 0.000000 0.000000
       CHANNELS 3 Yrotation Xrotation Zrotation
       JOINT LeftElbow
       {
        OFFSET 0.000000 -29.696600 0.000000
        CHANNELS 3 Yrotation Xrotation Zrotation
        JOINT LeftWrist
        {
         OFFSET 0.000000 -24.004700 0.000000
         CHANNELS 3 Yrotation Xrotation Zrotation
         End Site
         {
          OFFSET 0.000000 -17.728500 0.000000
         }
        }
       }
      }
     }
    }
   }
  }
 }
 JOINT RightHip
 {
  OFFSET -7.771700 -0.012900 -0.001300
  CHANNELS 3 Yrotation Xrotation Zrotation
  JOINT RightKnee
  {
   OFFSET 0.000000 -40.869800 0.001200
   CHANNELS 3 Yrotation Xrotation Zrotation
   JOINT RightAnkle
   {
    OFFSET 0.000000 -39.717900 0.002100
    CHANNELS 3 Yrotation Xrotation Zrotation
    JOINT RightToe
    {
     OFFSET 0.000000 -4.965400 11.033500
     CHANNELS 3 Yrotation Xrotation Zrotation
     End Site
     {
      OFFSET 0.000000 -1.423100 5.872300
     }
    }
   }
  }
 }
 JOINT LeftHip
 {
  OFFSET 7.771700 -0.012900 -0.001300
  CHANNELS 3 Yrotation Xrotation Zrotation
  JOINT LeftKnee
  {
   OFFSET 0.000000 -40.869800 0.001200
   CHANNELS 3 Yrotation Xrotation Zrotation
   JOINT LeftAnkle
   {
    OFFSET 0.000000 -39.717900 0.002100
    CHANNELS 3 Yrotation Xrotation Zrotation
    JOINT LeftToe
    {
     OFFSET 0.000000 -4.965400 11.033500
     CHANNELS 3 Yrotation Xrotation Zrotation
     End Site
     {
      OFFSET 0.000000 -1.423100 5.872300
     }
    }
   }
  }
 }
}
MOTION
Frames: 12
Frame Time: 0.008333
0.000000 85.388000 0.000000 0.000000 -5.767877 0.000000 0.000000 11.653817 0.000000 0.000000 -5.885947 0.000000 0.000000 -0.000000 0.000000 0.000000 -0.000000 0.000000 0.000000 12.528835 0.000000 0.000000 0.711642 0.000000 0.000000 -0.000000 0.000000 0.000000 0.000000 -90.000000 0.000000 -2.309062 0.000000 0.000000 2.309062 0.000000 0.000000 -0.000000 0.000000 0.000000 -0.000000 90.000000 0.000000 -2.309062 0.000000 0.000000 2.309062 0.000000 0.000000 8.520406 0.000000 0.000000 1.905762 0.000000 -0.000000 -4.658285 0.000000 0.000000 -0.000000 0.000000 0.000000 8.520406 0.000000 0.000000 1.905762 0.000000 -0.000000 -4.658285 0.000000 0.000000 -0.000000 0.000000
-32.819937 55.094413 40.874505 179.323843 -30.993048 -11.268321 1.142702 14.436536 6.702417 0.185128 8.504228 2.171331 0.282465 10.660146 2.718214 0.190040 8.491973 2.175869 4.829333 20.958351 0.425794 5.103740 -3.330574 -0.646264 0.022003 1.864690 -1.963413 -15.777408 -7.485112 5.358814 68.304582 -69.857702 -50.294985 13.548975 -9.854714 -28.818090 -9.506554 4.343690 -3.179455 5.367074 -4.086312 -2.175157 -82.500606 -72.176709 88.474296 9.430654 -16.626863 3.468183 -17.239329 -35.182822 5.645126 47.482813 84.687403 42.348614 0.422172 -18.615747 3.789087 -1.217926 2.536012 -0.554441 -14.883088 -46.928541 17.687250 173.687065 79.603538 168.673503 -1.230745 -17.186858 2.508544 -1.144056 -1.364213 -0.507074
-32.828574 55.092305 40.877801 179.308825 -30.980149 -11.265767 1.147985 14.439734 6.695378 0.190499 8.510596 2.172413 0.288296 10.651733 2.722997 0.193625 8.495589 2.176583 4.784032 20.927818 0.433288 4.967758 -3.440076 -0.594575 0.026017 1.854791 -1.962906 -15.762157 -7.483411 5.326250 68.207933 -69.826844 -50.206852 13.529446 -9.869442 -28.812469 -9.506866 4.324293 -3.190271 5.364995 -4.068553 -2.181166 -82.415446 -72.176411 88.392245 9.407803 -16.662403 3.466713 -17.232513 -35.204765 5.663630 47.314840 84.698619 42.169881 0.424385 -18.590992 3.805953 -1.221450 2.532902 -0.554549 -14.871512 -46.940916 17.697771 173.762859 79.604789 168.738809 -1.240114 -17.202924 2.522061 -1.134659 -1.350812 -0.501418
-32.838946 55.090536 40.879813 179.305554 -30.971383 -11.268042 1.141412 14.462653 6.676693 0.200866 8.502568 2.182802 0.293720 10.643961 2.727969 0.193294 8.516570 2.172593 4.685394 20.826462 0.446512 4.905002 -3.535907 -0.573873 0.033590 1.827280 -1.956913 -15.761774 -7.489308 5.320906 68.172168 -69.768845 -50.159922 13.559431 -9.796744 -28.726063 -9.522081 4.272998 -3.201912 5.388377 -4.039988 -2.174499 -82.420023 -72.165605 88.395024 9.400261 -16.642618 3.469521 -17.225596 -35.220578 5.673831 47.205950 84.706148 42.059054 0.405857 -18.567506 3.815929 -1.207446 2.529005 -0.546608 -14.854432 -46.950090 17.696538 173.839976 79.605316 168.810453 -1.251541 -17.220202 2.541161 -1.121655 -1.337712 -0.497240
-32.849334 55.087689 40.883230 179.289390 -30.950859 -11.270844 1.152277 14.444417 6.683941 0.195700 8.520244 2.172542 0.296728 10.648650 2.727814 0.189721 8.543389 2.163348 4.610409 20.678424 0.465310 4.848829 -3.645048 -0.556007 0.073225 1.789808 -1.956805 -15.777126 -7.490673 5.308793 68.159837 -69.737541 -50.142092 13.576240 -9.776655 -28.658586 -9.514545 4.210867 -3.185053 5.380186 -4.011260 -2.187114 -82.334477 -72.150852 88.322149 9.383292 -16.629847 3.482032 -17.212928 -35.246606 5.699598 47.009635 84.712731 41.852184 0.407478 -18.547811 3.841875 -1.216852 2.531265 -0.549369 -14.846384 -46.974439 17.706616 173.841422 79.598302 168.810775 -1.263275 -17.229857 2.553005 -1.115128 -1.333289 -0.494533
-32.860312 55.084952 40.885480 179.276696 -30.931337 -11.276669 1.157118 14.440583 6.683439 0.195535 8.534038 2.163452 0.303810 10.640662 2.737083 0.194708 8.536299 2.165463 4.547123 20.561256 0.469174 4.780427 -3.785749 -0.536750 0.088486 1.773833 -1.958900 -15.781178 -7.476947 5.286415 68.182706 -69.717171 -50.156898 13.581037 -9.778050 -28.604273 -9.518436 4.178835 -3.185555 5.372843 -3.995692 -2.183476 -82.303011 -72.143981 88.305522 9.381863 -16.613003 3.477993 -17.205375 -35.268152 5.725900 46.844204 84.714660 41.672196 0.412139 -18.533988 3.870052 -1.230615 2.536469 -0.555113 -14.816037 -47.004305 17.697880 173.811414 79.587238 168.798444 -1.273709 -17.235604 2.563271 -1.111168 -1.335271 -0.492377
-32.871397 55.082606 40.886042 179.276642 -30.913467 -11.291432 1.155983 14.436470 6.685031 0.199609 8.524278 2.173437 0.301635 10.653573 2.729088 0.191202 8.528952 2.167419 4.494232 20.430823 0.469451 4.720464 -3.938326 -0.524543 0.108452 1.757793 -1.958397 -15.804057 -7.463551 5.261105 68.195752 -69.716340 -50.141475 13.580074 -9.786103 -28.547018 -9.512752 4.160307 -3.181973 5.366891 -3.993159 -2.182905 -82.223023 -72.147543 88.227261 9.369011 -16.613912 3.473578 -17.217730 -35.282719 5.755283 46.729242 84.714227 41.538401 0.416705 -18.521203 3.892606 -1.241212 2.542868 -0.560573 -14.827756 -47.022104 17.712573 173.825716 79.576421 168.809083 -1.280745 -17.248428 2.574436 -1.105505 -1.331921 -0.490830
-32.884525 55.080219 40.884616 179.272819 -30.899209 -11.293657 1.154257 14.433194 6.677255 0.198660 8.523853 2.173410 0.292551 10.654605 2.720220 0.199520 8.520702 2.174158 4.449852 20.289546 0.465547 4.667004 -4.100133 -0.519554 0.125725 1.750776 -1.953872 -15.831907 -7.456595 5.249553 68.193258 -69.721360 -50.102036 13.582312 -9.793790 -28.525001 -9.505273 4.145156 -3.180442 5.368001 -3.992468 -2.179279 -82.128475 -72.148394 88.126549 9.356361 -16.622791 3.471248 -17.201810 -35.301472 5.765086 46.633119 84.721410 41.432889 0.415621 -18.508379 3.910130 -1.249256 2.536092 -0.552868 -14.822191 -47.040147 17.708568 173.815183 79.563393 168.794388 -1.291070 -17.255483 2.587335 -1.098268 -1.336088 -0.487689
-32.896209 55.079002 40.880443 179.268198 -30.895365 -11.305348 1.151809 14.442458 6.668206 0.199616 8.516930 2.174984 0.301506 10.644485 2.731057 0.203159 8.523094 2.177200 4.400348 20.136253 0.452409 4.617573 -4.270609 -0.520925 0.132921 1.746354 -1.953878 -15.859943 -7.449280 5.243142 68.188699 -69.730839 -50.065588 13.527692 -9.824623 -28.440261 -9.523570 4.066355 -3.209344 5.390667 -3.933068 -2.146454 -82.060530 -72.135167 88.037790 9.354601 -16.627896 3.488177 -17.182171 -35.303404 5.778911 46.521558 84.724132 41.316239 0.414183 -18.500818 3.933273 -1.257180 2.535289 -0.553994 -14.810424 -47.048206 17.705264 173.787674 79.544115 168.774784 -1.300960 -17.263106 2.594436 -1.091983 -1.345293 -0.483233
-32.908062 55.077732 40.874853 179.276898 -30.888329 -11.323529 1.145793 14.438191 6.672341 0.198939 8.511938 2.176047 0.300650 10.638266 2.732425 0.204600 8.528370 2.180994 4.354351 19.971046 0.434601 4.571334 -4.449501 -0.526714 0.144020 1.713122 -1.968796 -15.891928 -7.410602 5.242426 68.165134 -69.745507 -50.009199 13.412160 -9.868775 -28.363523 -9.527499 4.022089 -3.224591 5.400376 -3.910990 -2.132916 -81.985076 -72.111914 87.949528 9.347058 -16.628440 3.492873 -17.181394 -35.302242 5.792447 46.428977 84.724592 41.217813 0.408592 -18.501220 3.949317 -1.256478 2.539484 -0.555794 -14.789813 -47.065731 17.680367 173.704918 79.520476 168.718959 -1.300101 -17.262984 2.598195 -1.094211 -1.362372 -0.483519
-32.919266 55.076265 40.868415 179.293797 -30.875688 -11.350090 1.135147 14.428171 6.683083 0.199710 8.504871 2.174442 0.299130 10.630548 2.734075 0.201526 8.528028 2.184838 4.314649 19.803542 0.415826 4.528103 -4.635502 -0.534116 0.158397 1.689287 -1.979130 -15.925738 -7.376016 5.238256 68.068317 -69.789839 -49.881621 13.293724 -9.920308 -28.317063 -9.525792 4.010615 -3.232198 5.403303 -3.919348 -2.130249 -81.914606 -72.071895 87.857823 9.342034 -16.657926 3.477541 -17.187091 -35.302222 5.807121 46.334735 84.724477 41.130841 0.387362 -18.504251 3.950974 -1.240351 2.543153 -0.544117 -14.803796 -47.079794 17.680122 173.654448 79.498751 168.680051 -1.300373 -17.273035 2.601923 -1.095264 -1.371636 -0.485840
-32.932233 55.074760 40.859981 179.329462 -30.862421 -11.375075 1.105058 14.420764 6.687292 0.204289 8.494581 2.166881 0.297838 10.621331 2.736169 0.194422 8.526588 2.187540 4.281687 19.630830 0.398109 4.487385 -4.826796 -0.541951 0.170801 1.682123 -1.982387 -15.956262 -7.359667 5.234118 67.739068 -69.910730 -49.533393 13.236798 -9.993953 -28.291965 -9.514912 3.948074 -3.253462 5.398395 -3.856893 -2.102023 -81.862474 -72.062319 87.803536 9.349883 -16.677985 3.458175 -17.192503 -35.298630 5.807098 46.210732 84.727790 41.005371 0.379844 -18.522615 3.970929 -1.240809 2.553728 -0.543267 -14.840298 -47.088880 17.679153 173.621694 79.479729 168.643332 -1.312346 -17.283598 2.607824 -1.085923 -1.376895 -0.482322
